# xmcd CD database file
#
# Track frame offsets:
#	182
#	24047
#	52105
#	80562
#	103615
#	124215
#	151260
#	171345
#	196372
#	223095
#
# Disc length: 3130 seconds
#
# Revision: 0
# Processed by: cddbd v1.5.2PL0 Copyright (c) Steve Scherf et al.
# Submitted via: CDex 1.50
#
DISCID=850c380a
DTITLE=Charlie Mingus - His Final Work
DYEAR=1977
DGENRE=Jazz
TTITLE0=Peggy's Blue Skylight
TTITLE1=Fables Of Faubus
TTITLE2=Caroline Keikki Mingus
TTITLE3=Slop
TTITLE4=So Long Eric
TTITLE5=Farewell Farwell
TTITLE6=Just For Laughs Pt.1
TTITLE7=It Might As Well Be Spring
TTITLE8=Duke Ellington's Sound Of Love
TTITLE9=Just For Laughs Pt.2
EXTD=YEAR: 1977
EXTT0=
EXTT1=
EXTT2=
EXTT3=
EXTT4=
EXTT5=
EXTT6=
EXTT7=
EXTT8=
EXTT9=
PLAYORDER=
